ForCAD                                                                  S      1
1H,,1H;,25Higes/analyze_volume_outer,30Higes/analyze_volume_outer.iges, G      1
13HforIGES V0.2,7HUnknown,32,38,6,380,15,25Higes/analyze_volume_outer,  G      2
1.000000,1,4HINCH,1.000000,0.2000000E-001,15H20260717.230644,           G      3
0.1000000E-005,0.000000,7HforIGES,7HforIGES,11,0,15H20260717.230644,;   G      4
     128       1       0       0       0       0       0       0        D      1
     128       0       0      50       0                                D      2
128,6,8,3,2,0,0,0,0,0,0.000000,0.000000,0.000000,0.000000,             1P      1
0.2000000,0.4800000,0.7700000,1.000000,1.000000,1.000000,              1P      2
1.000000,0.000000,0.000000,0.000000,0.2500000,0.2500000,               1P      3
0.5000000,0.5000000,0.7500000,0.7500000,1.000000,1.000000,             1P      4
1.000000,1.000000,1.000000,1.000000,1.000000,1.000000,1.000000,        1P      5
1.000000,0.7071068,0.7071068,0.7071068,0.7071068,0.7071068,            1P      6
0.7071068,0.7071068,1.000000,1.000000,1.000000,1.000000,               1P      7
1.000000,1.000000,1.000000,0.7071068,0.7071068,0.7071068,              1P      8
0.7071068,0.7071068,0.7071068,0.7071068,1.000000,1.000000,             1P      9
1.000000,1.000000,1.000000,1.000000,1.000000,0.7071068,                1P     10
0.7071068,0.7071068,0.7071068,0.7071068,0.7071068,0.7071068,           1P     11
1.000000,1.000000,1.000000,1.000000,1.000000,1.000000,1.000000,        1P     12
0.7071068,0.7071068,0.7071068,0.7071068,0.7071068,0.7071068,           1P     13
0.7071068,1.000000,1.000000,1.000000,1.000000,1.000000,1.000000,       1P     14
1.000000,0.8200000,0.000000,-2.300000,1.100000,0.000000,               1P     15
-1.950000,1.550000,0.000000,-1.200000,1.380000,0.000000,               1P     16
-0.2000000,1.720000,0.000000,0.8500000,1.200000,0.000000,              1P     17
1.750000,0.8800000,0.000000,2.350000,0.8200000,0.8200000,              1P     18
-2.300000,1.100000,1.100000,-1.950000,1.550000,1.550000,               1P     19
-1.200000,1.380000,1.380000,-0.2000000,1.720000,1.720000,              1P     20
0.8500000,1.200000,1.200000,1.750000,0.8800000,0.8800000,              1P     21
2.350000,0.5021052E-016,0.8200000,-2.300000,0.6735557E-016,            1P     22
1.100000,-1.950000,0.9491013E-016,1.550000,-1.200000,                  1P     23
0.8450063E-016,1.380000,-0.2000000,0.1053196E-015,1.720000,            1P     24
0.8500000,0.7347881E-016,1.200000,1.750000,0.5388446E-016,             1P     25
0.8800000,2.350000,-0.8200000,0.8200000,-2.300000,-1.100000,           1P     26
1.100000,-1.950000,-1.550000,1.550000,-1.200000,-1.380000,             1P     27
1.380000,-0.2000000,-1.720000,1.720000,0.8500000,-1.200000,            1P     28
1.200000,1.750000,-0.8800000,0.8800000,2.350000,-0.8200000,            1P     29
0.1004210E-015,-2.300000,-1.100000,0.1347111E-015,-1.950000,           1P     30
-1.550000,0.1898203E-015,-1.200000,-1.380000,0.1690013E-015,           1P     31
-0.2000000,-1.720000,0.2106392E-015,0.8500000,-1.200000,               1P     32
0.1469576E-015,1.750000,-0.8800000,0.1077689E-015,2.350000,            1P     33
-0.8200000,-0.8200000,-2.300000,-1.100000,-1.100000,-1.950000,         1P     34
-1.550000,-1.550000,-1.200000,-1.380000,-1.380000,-0.2000000,          1P     35
-1.720000,-1.720000,0.8500000,-1.200000,-1.200000,1.750000,            1P     36
-0.8800000,-0.8800000,2.350000,-0.1506316E-015,-0.8200000,             1P     37
-2.300000,-0.2020667E-015,-1.100000,-1.950000,-0.2847304E-015,         1P     38
-1.550000,-1.200000,-0.2535019E-015,-1.380000,-0.2000000,              1P     39
-0.3159589E-015,-1.720000,0.8500000,-0.2204364E-015,-1.200000,         1P     40
1.750000,-0.1616534E-015,-0.8800000,2.350000,0.8200000,                1P     41
-0.8200000,-2.300000,1.100000,-1.100000,-1.950000,1.550000,            1P     42
-1.550000,-1.200000,1.380000,-1.380000,-0.2000000,1.720000,            1P     43
-1.720000,0.8500000,1.200000,-1.200000,1.750000,0.8800000,             1P     44
-0.8800000,2.350000,0.8200000,-0.2008421E-015,-2.300000,               1P     45
1.100000,-0.2694223E-015,-1.950000,1.550000,-0.3796405E-015,           1P     46
-1.200000,1.380000,-0.3380025E-015,-0.2000000,1.720000,                1P     47
-0.4212785E-015,0.8500000,1.200000,-0.2939152E-015,1.750000,           1P     48
0.8800000,-0.2155378E-015,2.350000,0.000000,1.000000,0.000000,         1P     49
1.000000;                                                              1P     50
S      1G      4D      2P     50                                        T      1
