ForCAD                                                                  S      1
1H,,1H;,20Higes/analyze_surface,25Higes/analyze_surface.iges,           G      1
13HforIGES V0.2,7HUnknown,32,38,6,380,15,20Higes/analyze_surface,       G      2
1.000000,1,4HINCH,1.000000,0.2000000E-001,15H20260717.230431,           G      3
0.1000000E-005,0.000000,7HforIGES,7HforIGES,11,0,15H20260717.230431,;   G      4
     128       1       0       0       0       0       0       0        D      1
     128       0       0      75       0                                D      2
128,14,6,4,3,0,0,0,0,0,0.000000,0.000000,0.000000,0.000000,            1P      1
0.000000,0.2000000,0.2000000,0.2800000,0.2800000,0.4800000,            1P      2
0.4800000,0.6800000,0.6800000,0.7800000,0.7800000,1.000000,            1P      3
1.000000,1.000000,1.000000,1.000000,0.000000,0.000000,0.000000,        1P      4
0.000000,0.3200000,0.4500000,0.6400000,1.000000,1.000000,              1P      5
1.000000,1.000000,1.000000,0.9250000,0.9375000,1.009052,               1P      6
1.060449,1.106177,1.132378,1.150682,1.132338,1.107254,1.068808,        1P      7
1.023692,0.9675000,0.9550000,1.000000,1.000000,0.9250000,              1P      8
0.9375000,1.009052,1.060449,1.106177,1.132378,1.150682,1.132338,       1P      9
1.107254,1.068808,1.023692,0.9675000,0.9550000,1.000000,               1P     10
1.000000,0.9250000,0.9375000,1.009052,1.060449,1.106177,               1P     11
1.132378,1.150682,1.132338,1.107254,1.068808,1.023692,0.9675000,       1P     12
0.9550000,1.000000,1.000000,0.9250000,0.9375000,1.009052,              1P     13
1.060449,1.106177,1.132378,1.150682,1.132338,1.107254,1.068808,        1P     14
1.023692,0.9675000,0.9550000,1.000000,1.000000,0.9250000,              1P     15
0.9375000,1.009052,1.060449,1.106177,1.132378,1.150682,1.132338,       1P     16
1.107254,1.068808,1.023692,0.9675000,0.9550000,1.000000,               1P     17
1.000000,0.9250000,0.9375000,1.009052,1.060449,1.106177,               1P     18
1.132378,1.150682,1.132338,1.107254,1.068808,1.023692,0.9675000,       1P     19
0.9550000,1.000000,1.000000,0.9250000,0.9375000,1.009052,              1P     20
1.060449,1.106177,1.132378,1.150682,1.132338,1.107254,1.068808,        1P     21
1.023692,0.9675000,0.9550000,1.000000,0.000000,0.000000,               1P     22
0.000000,0.2093733,0.000000,0.1629861,0.3933337,0.000000,              1P     23
0.2783155,0.5912265,0.000000,0.3691819,0.7661349,0.000000,             1P     24
0.4190451,0.9260006,0.000000,0.4571131,1.077545,0.000000,              1P     25
0.4703466,1.284895,0.000000,0.4719434,1.486759,0.000000,               1P     26
0.4514931,1.643436,0.000000,0.4304849,1.808718,0.000000,               1P     27
0.4057451,1.999405,0.000000,0.3772441,2.210511,0.000000,               1P     28
0.3492275,2.385529,0.000000,0.3308078,2.580620,0.000000,               1P     29
0.3168603,0.1781044,1.472026,0.4711286E-001,0.3771388,1.472026,        1P     30
0.1742549,0.5502978,1.472026,0.2624451,0.7345257,1.472026,             1P     31
0.3293029,0.8954803,1.472026,0.3627026,1.042130,1.472026,              1P     32
0.3868957,1.179738,1.472026,0.3905465,1.367002,1.472026,               1P     33
0.3816109,1.547956,1.472026,0.3543443,1.688088,1.472026,               1P     34
0.3288479,1.835756,1.472026,0.2997761,2.006126,1.472026,               1P     35
0.2662707,2.194956,1.472026,0.2321614,2.351802,1.472026,               1P     36
0.2079396,2.527043,1.472026,0.1864959,0.3787672,2.696144,              1P     37
0.1105313,0.5667016,2.696144,0.2102091,0.7290535,2.696144,             1P     38
0.2777346,0.9004002,2.696144,0.3264906,1.048818,2.696144,              1P     39
0.3476771,1.183725,2.696144,0.3616408,1.309337,2.696144,               1P     40
0.3584363,1.479564,2.696144,0.3421740,1.643099,2.696144,               1P     41
0.3105107,1.769516,2.696144,0.2822404,1.902620,2.696144,               1P     42
0.2505628,2.056187,2.696144,0.2140460,2.226550,2.696144,               1P     43
0.1761631,2.368267,2.696144,0.1482150,2.526894,2.696144,               1P     44
0.1217987,0.6762110,4.119315,0.2169135,0.8469162,4.119315,             1P     45
0.2902835,0.9935871,4.119315,0.3382954,1.147418,4.119315,              1P     46
0.3703486,1.279762,4.119315,0.3807061,1.399831,4.119315,               1P     47
0.3857418,1.510932,4.119315,0.3770264,1.660982,4.119315,               1P     48
0.3553567,1.804446,4.119315,0.3212718,1.915185,4.119315,               1P     49
0.2917855,2.031699,4.119315,0.2591581,2.166128,4.119315,               1P     50
0.2215401,2.315371,4.119315,0.1819813,2.439673,4.119315,               1P     51
0.1520227,2.579015,4.119315,0.1225148,1.035625,5.813073,               1P     52
0.3488831,1.184380,5.813073,0.3937671,1.311369,5.813073,               1P     53
0.4207964,1.443556,5.813073,0.4350965,1.556337,5.813073,               1P     54
0.4341825,1.658418,5.813073,0.4300058,1.752144,5.813073,               1P     55
0.4158746,1.878185,5.813073,0.3891910,1.997962,5.813073,               1P     56
0.3534190,2.090243,5.813073,0.3233686,2.187249,5.813073,               1P     57
0.2905204,2.299172,5.813073,0.2526415,2.423550,5.813073,               1P     58
0.2122807,2.527306,5.813073,0.1809593,2.643839,5.813073,               1P     59
0.1489765,1.354775,7.226295,0.4714734,1.483160,7.226295,               1P     60
0.4972989,1.592295,7.226295,0.5105525,1.705325,7.226295,               1P     61
0.5135702,1.801220,7.226295,0.5059282,1.887879,7.226295,               1P     62
0.4964019,1.967020,7.226295,0.4796341,2.073131,7.226295,               1P     63
0.4511020,2.173539,7.226295,0.4158746,2.250795,7.226295,               1P     64
0.3867941,2.331954,7.226295,0.3552436,2.425594,7.226295,               1P     65
0.3188576,2.529726,7.226295,0.2797727,2.616689,7.226295,               1P     66
0.2489969,2.714494,7.226295,0.2169208,1.550000,8.000000,               1P     67
0.5500000,1.665920,8.000000,0.5688913,1.764376,8.000000,               1P     68
0.5773725,1.866244,8.000000,0.5768284,1.952572,8.000000,               1P     69
0.5674804,2.030562,8.000000,0.5567502,2.101708,8.000000,               1P     70
0.5399235,2.197043,8.000000,0.5120926,2.287175,8.000000,               1P     71
0.4785901,2.356506,8.000000,0.4510914,2.429331,8.000000,               1P     72
0.4213318,2.513355,8.000000,0.3870099,2.606806,8.000000,               1P     73
0.3500428,2.684868,8.000000,0.3207950,2.772685,8.000000,               1P     74
0.2901104,0.000000,1.000000,0.000000,1.000000;                         1P     75
S      1G      4D      2P     75                                        T      1
