ForCAD                                                                  S      1
1H,,1H;,32Higes/knot_curve_periodic_uniform,                            G      1
37Higes/knot_curve_periodic_uniform.iges,13HforIGES V0.2,7HUnknown,32,  G      2
38,6,380,15,32Higes/knot_curve_periodic_uniform,1.000000,1,4HINCH,      G      3
1.000000,0.2000000E-001,15H20260707.212643,0.1000000E-005,0.000000,     G      4
7HforIGES,7HforIGES,11,0,15H20260707.212643,;                           G      5
     126       1       0       0       0       0       0       0        D      1
     126       0       0       9       0                                D      2
126,7,2,0,0,0,0,0.000000,1.000000,2.000000,3.000000,4.000000,          1P      1
5.000000,6.000000,7.000000,8.000000,9.000000,10.00000,1.015000,        1P      2
1.007500,0.9925000,0.9850000,0.9925000,1.007500,1.015000,              1P      3
1.007500,1.000000,0.000000,0.000000,0.5000000,0.8660254,               1P      4
0.1385641,-0.5000000,0.8660254,-0.1385641,-1.000000,                   1P      5
0.1224647E-015,-0.3918870E-016,-0.5000000,-0.8660254,0.1385641,        1P      6
0.5000000,-0.8660254,-0.1385641,1.000000,0.000000,0.000000,            1P      7
0.5000000,0.8660254,0.1385641,2.000000,8.000000,0.000000,              1P      8
0.000000,0.000000;                                                     1P      9
S      1G      5D      2P      9                                        T      1
