ForCAD                                                                  S      1
1H,,1H;,36Higes/knot_curve_unclamped_nonuniform,                        G      1
41Higes/knot_curve_unclamped_nonuniform.iges,13HforIGES V0.2,7HUnknown, G      2
32,38,6,380,15,36Higes/knot_curve_unclamped_nonuniform,1.000000,1,      G      3
4HINCH,1.000000,0.2000000E-001,15H20260707.212643,0.1000000E-005,       G      4
0.000000,7HforIGES,7HforIGES,11,0,15H20260707.212643,;                  G      5
     126       1       0       0       0       0       0       0        D      1
     126       0       0       9       0                                D      2
126,7,2,0,0,0,0,-0.2000000,0.3000000,1.000000,1.800000,2.500000,       1P      1
3.100000,4.200000,4.900000,5.800000,7.100000,8.000000,1.000000,        1P      2
1.006508,1.011727,1.014624,1.014624,1.011727,1.006508,1.000000,        1P      3
0.000000,0.000000,0.1800000,0.6428571,0.3037186,0.1122282,             1P      4
1.285714,0.5472820,-0.4005377E-001,1.928571,0.6824495,                 1P      5
-0.1621744,2.571429,0.6824495,-0.1621744,3.214286,0.5472820,           1P      6
-0.4005377E-001,3.857143,0.3037186,0.1122282,4.500000,                 1P      7
0.8572528E-016,0.1800000,1.000000,5.800000,0.000000,0.000000,          1P      8
0.000000;                                                              1P      9
S      1G      5D      2P      9                                        T      1
