ForCAD                                                                  S      1
1H,,1H;,17Higes/knot_surface,22Higes/knot_surface.iges,13HforIGES V0.2, G      1
7HUnknown,32,38,6,380,15,17Higes/knot_surface,1.000000,1,4HINCH,        G      2
1.000000,0.2000000E-001,15H20260705.103449,0.1000000E-005,0.000000,     G      3
7HforIGES,7HforIGES,11,0,15H20260705.103449,;                           G      4
     128       1       0       0       0       0       0       0        D      1
     128       0       0      14       0                                D      2
128,3,3,2,2,0,0,1,0,0,0.000000,1.000000,2.000000,3.000000,             1P      1
4.000000,5.000000,6.000000,0.000000,1.000000,2.000000,3.000000,        1P      2
4.000000,5.000000,6.000000,1.000000,1.000000,1.000000,1.000000,        1P      3
1.000000,1.000000,1.000000,1.000000,1.000000,1.000000,1.000000,        1P      4
1.000000,1.000000,1.000000,1.000000,1.000000,0.000000,0.000000,        1P      5
0.000000,1.000000,0.000000,0.2510746,2.000000,0.000000,                1P      6
0.3498508,3.000000,0.000000,0.2364121,0.000000,1.000000,               1P      7
0.000000,1.000000,1.000000,0.1920325,2.000000,1.000000,                1P      8
0.2675806,3.000000,1.000000,0.1808180,0.000000,2.000000,               1P      9
0.000000,1.000000,2.000000,0.4267444E-001,2.000000,2.000000,           1P     10
0.5946313E-001,3.000000,2.000000,0.4018229E-001,0.000000,              1P     11
3.000000,-0.000000,1.000000,3.000000,-0.1267540,2.000000,              1P     12
3.000000,-0.1766208,3.000000,3.000000,-0.1193517,2.000000,             1P     13
4.000000,2.000000,4.000000;                                            1P     14
S      1G      4D      2P     14                                        T      1
