ForCAD                                                                  S      1
1H,,1H;,37Higes/knot_surface_periodic_nonuniform,                       G      1
42Higes/knot_surface_periodic_nonuniform.iges,13HforIGES V0.2,7HUnknown,G      2
32,38,6,380,15,37Higes/knot_surface_periodic_nonuniform,1.000000,1,     G      3
4HINCH,1.000000,0.2000000E-001,15H20260707.212643,0.1000000E-005,       G      4
0.000000,7HforIGES,7HforIGES,11,0,15H20260707.212643,;                  G      5
     128       1       0       0       0       0       0       0        D      1
     128       0       0      47       0                                D      2
128,7,7,2,2,0,0,0,0,0,-1.400000,-0.8000000,0.000000,0.8000000,         1P      1
1.700000,2.200000,3.400000,4.000000,4.800000,5.600000,6.500000,        1P      2
0.000000,0.000000,0.000000,0.5000000,1.200000,2.000000,3.400000,       1P      3
4.100000,5.000000,5.000000,5.000000,1.000000,1.000000,1.000000,        1P      4
1.000000,1.000000,1.000000,1.000000,1.000000,1.004339,1.002169,        1P      5
0.9978306,0.9956612,0.9978306,1.002169,1.004339,1.002169,              1P      6
1.007818,1.003909,0.9960908,0.9921817,0.9960908,1.003909,              1P      7
1.007818,1.003909,1.009749,1.004875,0.9951254,0.9902507,               1P      8
0.9951254,1.004875,1.009749,1.004875,1.009749,1.004875,                1P      9
0.9951254,0.9902507,0.9951254,1.004875,1.009749,1.004875,              1P     10
1.007818,1.003909,0.9960908,0.9921817,0.9960908,1.003909,              1P     11
1.007818,1.003909,1.004339,1.002169,0.9978306,0.9956612,               1P     12
0.9978306,1.002169,1.004339,1.002169,1.000000,1.000000,1.000000,       1P     13
1.000000,1.000000,1.000000,1.000000,1.000000,1.530000,0.000000,        1P     14
0.000000,0.7650000,1.325019,0.000000,-0.7650000,1.325019,              1P     15
0.000000,-1.530000,0.1873710E-015,0.000000,-0.7650000,-1.325019,       1P     16
0.000000,0.7650000,-1.325019,0.000000,1.530000,0.000000,               1P     17
0.000000,0.7650000,1.325019,0.000000,1.522078,0.000000,                1P     18
0.3000000,0.7610388,1.318158,0.3187877,-0.7610388,1.318158,            1P     19
0.2812123,-1.522078,0.1864007E-015,0.3000000,-0.7610388,               1P     20
-1.318158,0.3187877,0.7610388,-1.318158,0.2812123,1.522078,            1P     21
0.000000,0.3000000,0.7610388,1.318158,0.3187877,1.499879,              1P     22
0.000000,0.6000000,0.7499396,1.298933,0.6338543,-0.7499396,            1P     23
1.298933,0.5661457,-1.499879,0.1836822E-015,0.6000000,                 1P     24
-0.7499396,-1.298933,0.6338543,0.7499396,-1.298933,0.5661457,          1P     25
1.499879,0.000000,0.6000000,0.7499396,1.298933,0.6338543,              1P     26
1.467802,0.000000,0.9000000,0.7339008,1.271154,0.9422156,              1P     27
-0.7339008,1.271154,0.8577844,-1.467802,0.1797539E-015,                1P     28
0.9000000,-0.7339008,-1.271154,0.9422156,0.7339008,-1.271154,          1P     29
0.8577844,1.467802,0.000000,0.9000000,0.7339008,1.271154,              1P     30
0.9422156,1.432198,0.000000,1.200000,0.7160992,1.240320,               1P     31
1.242216,-0.7160992,1.240320,1.157784,-1.432198,0.1753937E-015,        1P     32
1.200000,-0.7160992,-1.240320,1.242216,0.7160992,-1.240320,            1P     33
1.157784,1.432198,0.000000,1.200000,0.7160992,1.240320,1.242216,       1P     34
1.400121,0.000000,1.500000,0.7000604,1.212540,1.533854,                1P     35
-0.7000604,1.212540,1.466146,-1.400121,0.1714653E-015,1.500000,        1P     36
-0.7000604,-1.212540,1.533854,0.7000604,-1.212540,1.466146,            1P     37
1.400121,0.000000,1.500000,0.7000604,1.212540,1.533854,1.377922,       1P     38
0.000000,1.800000,0.6889612,1.193316,1.818788,-0.6889612,              1P     39
1.193316,1.781212,-1.377922,0.1687468E-015,1.800000,-0.6889612,        1P     40
-1.193316,1.818788,0.6889612,-1.193316,1.781212,1.377922,              1P     41
0.000000,1.800000,0.6889612,1.193316,1.818788,1.370000,0.000000,       1P     42
2.100000,0.6850000,1.186455,2.100000,-0.6850000,1.186455,              1P     43
2.100000,-1.370000,0.1677766E-015,2.100000,-0.6850000,-1.186455,       1P     44
2.100000,0.6850000,-1.186455,2.100000,1.370000,0.000000,               1P     45
2.100000,0.6850000,1.186455,2.100000,0.000000,4.800000,0.000000,       1P     46
5.000000;                                                              1P     47
S      1G      5D      2P     47                                        T      1
