ForCAD                                                                  S      1
1H,,1H;,33Higes/knot_curve_one_sided_uniform,                           G      1
38Higes/knot_curve_one_sided_uniform.iges,13HforIGES V0.2,7HUnknown,32, G      2
38,6,380,15,33Higes/knot_curve_one_sided_uniform,1.000000,1,4HINCH,     G      3
1.000000,0.2000000E-001,15H20260707.212643,0.1000000E-005,0.000000,     G      4
7HforIGES,7HforIGES,11,0,15H20260707.212643,;                           G      5
     126       1       0       0       0       0       0       0        D      1
     126       0       0       9       0                                D      2
126,7,2,0,0,0,0,0.000000,0.000000,0.000000,1.000000,2.000000,          1P      1
3.000000,4.000000,5.000000,6.000000,7.000000,8.000000,1.000000,        1P      2
1.006508,1.011727,1.014624,1.014624,1.011727,1.006508,1.000000,        1P      3
0.000000,0.000000,0.1800000,0.6428571,0.3037186,0.1122282,             1P      4
1.285714,0.5472820,-0.4005377E-001,1.928571,0.6824495,                 1P      5
-0.1621744,2.571429,0.6824495,-0.1621744,3.214286,0.5472820,           1P      6
-0.4005377E-001,3.857143,0.3037186,0.1122282,4.500000,                 1P      7
0.8572528E-016,0.1800000,0.000000,6.000000,0.000000,0.000000,          1P      8
0.000000;                                                              1P      9
S      1G      5D      2P      9                                        T      1
