ForCAD                                                                  S      1
1H,,1H;,24Higes/knot_curve_periodic,29Higes/knot_curve_periodic.iges,   G      1
13HforIGES V0.2,7HUnknown,32,38,6,380,15,24Higes/knot_curve_periodic,   G      2
1.000000,1,4HINCH,1.000000,0.2000000E-001,15H20260705.103446,           G      3
0.1000000E-005,0.000000,7HforIGES,7HforIGES,11,0,15H20260705.103446,;   G      4
     126       1       0       0       0       0       0       0        D      1
     126       0       0       9       0                                D      2
126,8,2,0,0,1,0,0.000000,1.000000,2.000000,3.000000,4.000000,          1P      1
5.000000,6.000000,7.000000,8.000000,9.000000,10.00000,11.00000,        1P      2
1.000000,1.000000,1.000000,1.000000,1.000000,1.000000,1.000000,        1P      3
1.000000,1.000000,1.000000,0.000000,0.000000,0.6234898,                1P      4
0.7818315,0.000000,-0.2225209,0.9749279,0.000000,-0.9009689,           1P      5
0.4338837,0.000000,-0.9009689,-0.4338837,0.000000,-0.2225209,          1P      6
-0.9749279,0.000000,0.6234898,-0.7818315,0.000000,1.000000,            1P      7
0.000000,0.000000,0.6234898,0.7818315,0.000000,2.000000,               1P      8
9.000000,0.000000,0.000000,0.000000;                                   1P      9
S      1G      4D      2P      9                                        T      1
