ForCAD                                                                  S      1
1H,,1H;,36Higes/knot_surface_partial_nonuniform,                        G      1
41Higes/knot_surface_partial_nonuniform.iges,13HforIGES V0.2,7HUnknown, G      2
32,38,6,380,15,36Higes/knot_surface_partial_nonuniform,1.000000,1,      G      3
4HINCH,1.000000,0.2000000E-001,15H20260707.212643,0.1000000E-005,       G      4
0.000000,7HforIGES,7HforIGES,11,0,15H20260707.212643,;                  G      5
     128       1       0       0       0       0       0       0        D      1
     128       0       0      47       0                                D      2
128,7,7,2,2,0,0,0,0,0,-0.7000000,0.000000,0.000000,0.4500000,          1P      1
1.400000,2.100000,3.600000,4.200000,5.300000,5.300000,6.400000,        1P      2
-0.7000000,0.000000,0.000000,0.4500000,1.400000,2.100000,              1P      3
3.600000,4.200000,5.300000,5.300000,6.400000,1.000000,1.000000,        1P      4
1.000000,1.000000,1.000000,1.000000,1.000000,1.000000,1.000000,        1P      5
1.001883,1.003392,1.004230,1.004230,1.003392,1.001883,1.000000,        1P      6
1.000000,1.003392,1.006113,1.007622,1.007622,1.006113,1.003392,        1P      7
1.000000,1.000000,1.004230,1.007622,1.009505,1.009505,1.007622,        1P      8
1.004230,1.000000,1.000000,1.004230,1.007622,1.009505,1.009505,        1P      9
1.007622,1.004230,1.000000,1.000000,1.003392,1.006113,1.007622,        1P     10
1.007622,1.006113,1.003392,1.000000,1.000000,1.001883,1.003392,        1P     11
1.004230,1.004230,1.003392,1.001883,1.000000,1.000000,1.000000,        1P     12
1.000000,1.000000,1.000000,1.000000,1.000000,1.000000,0.000000,        1P     13
0.000000,0.000000,0.5714286,0.000000,0.8571429E-002,1.142857,          1P     14
0.000000,0.1714286E-001,1.714286,0.000000,0.2571429E-001,              1P     15
2.285714,0.000000,0.3428571E-001,2.857143,0.000000,                    1P     16
0.4285714E-001,3.428571,0.000000,0.5142857E-001,4.000000,              1P     17
0.000000,0.6000000E-001,0.000000,0.4285714,0.000000,0.5714286,         1P     18
0.4285714,0.5252816E-001,1.142857,0.4285714,0.9610763E-001,            1P     19
1.714286,0.4285714,0.1235621,2.285714,0.4285714,0.1309090,             1P     20
2.857143,0.4285714,0.1181484,3.428571,0.4285714,0.8926286E-001,        1P     21
4.000000,0.4285714,0.5142857E-001,0.000000,0.8571429,0.000000,         1P     22
0.5714286,0.8571429,0.8753620E-001,1.142857,0.8571429,0.1589474,       1P     23
1.714286,0.8571429,0.2013024,2.285714,0.8571429,0.2074248,             1P     24
2.857143,0.8571429,0.1773148,3.428571,0.8571429,0.1181484,             1P     25
4.000000,0.8571429,0.4285714E-001,0.000000,1.285714,0.000000,          1P     26
0.5714286,1.285714,0.1064192,1.142857,1.285714,0.1927310,              1P     27
1.714286,1.285714,0.2428101,2.285714,1.285714,0.2477081,               1P     28
2.857143,1.285714,0.2074248,3.428571,1.285714,0.1309090,               1P     29
4.000000,1.285714,0.3428571E-001,0.000000,1.714286,0.000000,           1P     30
0.5714286,1.714286,0.1051948,1.142857,1.714286,0.1902820,              1P     31
1.714286,1.714286,0.2391367,2.285714,1.714286,0.2428101,               1P     32
2.857143,1.714286,0.2013024,3.428571,1.714286,0.1235621,               1P     33
4.000000,1.714286,0.2571429E-001,0.000000,2.142857,0.000000,           1P     34
0.5714286,2.142857,0.8386273E-001,1.142857,2.142857,0.1516005,         1P     35
1.714286,2.142857,0.1902820,2.285714,2.142857,0.1927310,               1P     36
2.857143,2.142857,0.1589474,3.428571,2.142857,0.9610763E-001,          1P     37
4.000000,2.142857,0.1714286E-001,0.000000,2.571429,0.000000,           1P     38
0.5714286,2.571429,0.4640571E-001,1.142857,2.571429,                   1P     39
0.8386273E-001,1.714286,2.571429,0.1051948,2.285714,2.571429,          1P     40
0.1064192,2.857143,2.571429,0.8753620E-001,3.428571,2.571429,          1P     41
0.5252816E-001,4.000000,2.571429,0.8571429E-002,0.000000,              1P     42
3.000000,0.000000,0.5714286,3.000000,0.1275250E-016,1.142857,          1P     43
3.000000,0.2297922E-016,1.714286,3.000000,0.2865462E-016,              1P     44
2.285714,3.000000,0.2865462E-016,2.857143,3.000000,                    1P     45
0.2297922E-016,3.428571,3.000000,0.1275250E-016,4.000000,              1P     46
3.000000,0.3599423E-032,0.000000,5.300000,0.000000,5.300000;           1P     47
S      1G      5D      2P     47                                        T      1
