ForCAD                                                                  S      1
1H,,1H;,26Higes/knot_repeated_surface,                                  G      1
31Higes/knot_repeated_surface.iges,13HforIGES V0.2,7HUnknown,32,38,6,   G      2
380,15,26Higes/knot_repeated_surface,1.000000,1,4HINCH,1.000000,        G      3
0.2000000E-001,15H20260717.230347,0.1000000E-005,0.000000,7HforIGES,    G      4
7HforIGES,11,0,15H20260717.230347,;                                     G      5
     128       1       0       0       0       0       0       0        D      1
     128       0       0      46       0                                D      2
128,8,6,3,2,0,0,0,0,0,0.000000,0.000000,0.000000,0.000000,             1P      1
0.1200000,0.3000000,0.3000000,0.5500000,0.8200000,1.000000,            1P      2
1.000000,1.000000,1.000000,0.000000,0.000000,0.000000,0.2000000,       1P      3
0.4200000,0.4200000,0.7500000,1.000000,1.000000,1.000000,              1P      4
1.123215,1.156442,1.186594,1.209073,1.220067,1.217605,1.202134,        1P      5
1.176387,1.144594,1.160513,1.203798,1.243077,1.272361,1.286683,        1P      6
1.283476,1.263322,1.229781,1.188364,1.187113,1.237570,1.283358,        1P      7
1.317495,1.334190,1.330452,1.306958,1.267859,1.219579,1.195182,        1P      8
1.247815,1.295578,1.331187,1.348603,1.344703,1.320196,1.279411,        1P      9
1.229048,1.182189,1.231318,1.275902,1.309140,1.325396,1.321756,        1P     10
1.298881,1.260811,1.213801,1.152177,1.193213,1.230452,1.258215,        1P     11
1.271794,1.268753,1.249646,1.217847,1.178581,1.113742,1.144414,        1P     12
1.172248,1.192999,1.203148,1.200875,1.186594,1.162826,1.133478,        1P     13
-2.756000,-1.800000,0.1953585,-2.067000,-1.677691,0.6245173,           1P     14
-1.378000,-1.620000,0.8092570,-0.6890000,-1.677691,0.6533616,          1P     15
0.000000,-1.800000,0.3357731,0.6890000,-1.898309,0.1552557,            1P     16
1.378000,-1.932000,0.2519701,2.067000,-1.898309,0.4734684,             1P     17
2.756000,-1.800000,0.5353585,-2.451400,-1.200000,0.2889149,            1P     18
-1.781900,-1.043750,0.6682725,-1.112400,-0.9720000,0.8620800,          1P     19
-0.4429000,-1.043750,0.7809303,0.2266000,-1.200000,0.5395936,          1P     20
0.8961000,-1.332250,0.3569921,1.565600,-1.380000,0.3563458,            1P     21
2.235100,-1.332250,0.4485510,2.904600,-1.200000,0.4407636,             1P     22
-2.522000,-0.6000000,0.2760098,-1.891500,-0.4098091,0.4543116,         1P     23
-1.261000,-0.3240000,0.6416457,-0.6305000,-0.4098091,0.7802258,        1P     24
0.2613396E-016,-0.6000000,0.8140619,0.6305000,-0.7661909,              1P     25
0.7339855,1.261000,-0.8280000,0.5885350,1.891500,-0.7661909,           1P     26
0.4273867,2.522000,-0.6000000,0.2760098,-2.650800,0.000000,            1P     27
0.2381385,-2.039800,0.2241320,0.1980854,-1.428800,0.3240000,           1P     28
0.3588968,-0.8178000,0.2241320,0.7020921,-0.2068000,                   1P     29
0.3673940E-016,1.013443,0.4042000,-0.2001320,1.056575,1.015200,        1P     30
-0.2760000,0.7897195,1.626200,-0.2001320,0.3901598,2.237200,           1P     31
-0.7347881E-016,0.1029962,-2.522000,0.6000000,0.2760098,               1P     32
-1.891500,0.8580732,0.1446871,-1.261000,0.9720000,0.2744159,           1P     33
-0.6305000,0.8580732,0.6676548,-0.5226793E-016,0.6000000,              1P     34
1.054478,0.6305000,0.3659268,1.113693,1.261000,0.2760000,              1P     35
0.7717581,1.891500,0.3659268,0.2654177,2.522000,0.6000000,             1P     36
-0.6399021E-001,-2.451400,1.200000,0.2889149,-1.781900,1.492014,       1P     37
0.2146034,-1.112400,1.620000,0.3162900,-0.4429000,1.492014,            1P     38
0.6026981,0.2266000,1.200000,0.8795936,0.8961000,0.9319857,            1P     39
0.9056284,1.565600,0.8280000,0.6249239,2.235100,0.9319857,             1P     40
0.2223520,2.904600,1.200000,-0.4006901E-001,-2.756000,1.800000,        1P     41
0.1953585,-2.067000,2.125955,0.2845746,-1.378000,2.268000,             1P     42
0.3820824,-0.6890000,2.125955,0.4887227,0.8567629E-016,1.800000,       1P     43
0.5761894,0.6890000,1.498045,0.5870309,1.378000,1.380000,              1P     44
0.4951379,2.067000,1.498045,0.3418176,2.756000,1.800000,               1P     45
0.1953585,0.000000,1.000000,0.000000,1.000000;                         1P     46
S      1G      5D      2P     46                                        T      1
