ForCAD                                                                  S      1
1H,,1H;,23Higes/knot_complex_curve,28Higes/knot_complex_curve.iges,     G      1
13HforIGES V0.2,7HUnknown,32,38,6,380,15,23Higes/knot_complex_curve,    G      2
1.000000,1,4HINCH,1.000000,0.2000000E-001,15H20260707.212644,           G      3
0.1000000E-005,0.000000,7HforIGES,7HforIGES,11,0,15H20260707.212644,;   G      4
     126       1       0       0       0       0       0       0        D      1
     126       0       0      11       0                                D      2
126,10,3,0,0,0,0,0.000000,0.000000,0.000000,0.000000,                  1P      1
0.8000000E-001,0.1800000,0.1800000,0.3500000,0.6200000,                1P      2
0.6200000,0.8200000,1.000000,1.000000,1.000000,1.000000,               1P      3
1.004221,1.021331,1.075202,1.184966,1.850000,1.380000,1.317403,        1P      4
0.6200000,1.075202,1.021331,1.004221,0.000000,0.2500000,               1P      5
0.4800000,0.5500000,0.6067351,0.6522146,1.100000,0.6724768,            1P      6
0.7383728,1.650000,0.7567971,0.7651232,2.200000,2.192329,              1P      7
0.7709430,2.750000,0.2627532,0.7984767,3.300000,-0.5802425,            1P      8
0.8860454,3.850000,-2.234808,1.060017,4.400000,-0.9696081,             1P      9
1.329556,4.950000,-0.3856774,1.684799,5.500000,0.6979523E-001,         1P     10
2.098818,0.000000,1.000000,0.000000,0.000000,0.000000;                 1P     11
S      1G      4D      2P     11                                        T      1
