ForCAD                                                                  S      1
1H,,1H;,17Higes/nurbs_curve3,22Higes/nurbs_curve3.iges,13HforIGES V0.2, G      1
7HUnknown,32,38,6,380,15,17Higes/nurbs_curve3,1.000000,1,4HINCH,        G      2
1.000000,0.2000000E-001,15H20260716.233410,0.1000000E-005,0.000000,     G      3
7HforIGES,7HforIGES,11,0,15H20260716.233410,;                           G      4
     126       1       0       0       0       0       0       0        D      1
     126       0       0       9       0                                D      2
126,8,4,0,0,0,0,0.000000,0.000000,0.000000,0.000000,0.000000,          1P      1
0.2500000,0.2500000,0.7500000,0.7500000,1.000000,1.000000,             1P      2
1.000000,1.000000,1.000000,1.000000,1.125000,1.221875,1.428125,        1P      3
1.381250,1.165625,0.6968750,0.5125000,0.3000000,1.000000,              1P      4
2.000000,-3.000000,0.2143258,2.000000,-2.214326,-0.3352443,            1P      5
2.012788,-1.664756,-1.426650,2.076586,-0.5733498,-1.948945,            1P      6
2.248869,-0.5105543E-001,-2.314366,2.576408,0.3143656,-2.482686,       1P      7
3.636771,0.4826859,-2.535534,4.560976,0.5355339,-2.535534,             1P      8
7.000000,0.5355339,0.000000,1.000000,0.000000,0.000000,0.000000;       1P      9
S      1G      4D      2P      9                                        T      1
