ForCAD                                                                  S      1
1H,,1H;,19Higes/nurbs_surface2,24Higes/nurbs_surface2.iges,             G      1
13HforIGES V0.2,7HUnknown,32,38,6,380,15,19Higes/nurbs_surface2,        G      2
1.000000,1,4HINCH,1.000000,0.2000000E-001,15H20260716.233410,           G      3
0.1000000E-005,0.000000,7HforIGES,7HforIGES,11,0,15H20260716.233410,;   G      4
     128       1       0       0       0       0       0       0        D      1
     128       0       0      60       0                                D      2
128,8,8,4,4,0,0,0,0,0,0.000000,0.000000,0.000000,0.000000,             1P      1
0.000000,0.2500000,0.2500000,0.7500000,0.7500000,1.000000,             1P      2
1.000000,1.000000,1.000000,1.000000,0.000000,0.000000,0.000000,        1P      3
0.000000,0.000000,0.2500000,0.2500000,0.7500000,0.7500000,             1P      4
1.000000,1.000000,1.000000,1.000000,1.000000,1.000000,1.125000,        1P      5
1.229167,1.479167,1.541667,1.479167,1.229167,1.125000,1.000000,        1P      6
1.000000,1.109375,1.200521,1.419271,1.473958,1.419271,1.200521,        1P      7
1.109375,1.000000,1.000000,1.095052,1.174262,1.364366,1.411892,        1P      8
1.364366,1.174262,1.095052,1.000000,1.000000,1.055990,1.102648,        1P      9
1.214627,1.242622,1.214627,1.102648,1.055990,1.000000,1.000000,        1P     10
1.028646,1.052517,1.109809,1.124132,1.109809,1.052517,1.028646,        1P     11
1.000000,1.000000,1.009115,1.016710,1.034939,1.039497,1.034939,        1P     12
1.016710,1.009115,1.000000,1.000000,1.001302,1.002387,1.004991,        1P     13
1.005642,1.004991,1.002387,1.001302,1.000000,1.000000,1.000000,        1P     14
1.000000,1.000000,1.000000,1.000000,1.000000,1.000000,1.000000,        1P     15
1.000000,1.000000,1.000000,1.000000,1.000000,1.000000,1.000000,        1P     16
1.000000,1.000000,-0.5000000,-0.5000000,0.7065307,-0.3888889,          1P     17
-0.5000000,0.7448129,-0.3050847,-0.5000000,0.7707670,-0.1267606,       1P     18
-0.5000000,0.8181423,-0.4500904E-017,-0.5000000,0.8275853,             1P     19
0.1267606,-0.5000000,0.8181423,0.3050847,-0.5000000,0.7707670,         1P     20
0.3888889,-0.5000000,0.7448129,0.5000000,-0.5000000,0.7065307,         1P     21
-0.5000000,-0.4375000,0.7280644,-0.3943662,-0.4436620,0.7630256,       1P     22
-0.3123644,-0.4479393,0.7872937,-0.1321101,-0.4559633,0.8328197,       1P     23
-0.4707659E-017,-0.4575972,0.8420898,0.1321101,-0.4559633,             1P     24
0.8328197,0.3123644,-0.4479393,0.7872937,0.3943662,-0.4436620,         1P     25
0.7630256,0.5000000,-0.4375000,0.7280644,-0.5000000,-0.3750000,        1P     26
0.7460092,-0.3995244,-0.3858502,0.7784803,-0.3193495,-0.3935502,       1P     27
0.8015239,-0.1374264,-0.4083824,0.8459118,-0.4914605E-017,             1P     28
-0.4114663,0.8551411,0.1374264,-0.4083824,0.8459118,0.3193495,         1P     29
-0.3935502,0.8015239,0.3995244,-0.3858502,0.7784803,0.5000000,         1P     30
-0.3750000,0.7460092,-0.5000000,-0.1875000,0.7890768,-0.4143033,       1P     31
-0.2040691,0.8170013,-0.3400905,-0.2165912,0.8381055,-0.1543684,       1P     32
-0.2427193,0.8821403,-0.5584077E-017,-0.2485155,0.8919089,             1P     33
0.1543684,-0.2427193,0.8821403,0.3400905,-0.2165912,0.8381055,         1P     34
0.4143033,-0.2040691,0.8170013,0.5000000,-0.1875000,0.7890768,         1P     35
-0.5000000,-0.6938894E-017,0.7998436,-0.4253165,-0.1392405E-001,       1P     36
0.8261972,-0.3562887,-0.2494845E-001,0.8470627,-0.1689480,             1P     37
-0.4947204E-001,0.8934776,-0.6172669E-017,-0.5521236E-001,             1P     38
0.9043421,0.1689480,-0.4947204E-001,0.8934776,0.3562887,               1P     39
-0.2494845E-001,0.8470627,0.4253165,-0.1392405E-001,0.8261972,         1P     40
0.5000000,-0.6938894E-017,0.7998436,-0.5000000,0.1875000,              1P     41
0.7890768,-0.4335484,0.1812903,0.8141306,-0.3688367,0.1762006,         1P     42
0.8346657,-0.1811701,0.1642902,0.8827201,-0.6675245E-017,              1P     43
0.1613779,0.8944703,0.1811701,0.1642902,0.8827201,0.3688367,           1P     44
0.1762006,0.8346657,0.4335484,0.1812903,0.8141306,0.5000000,           1P     45
0.1875000,0.7890768,-0.5000000,0.3750000,0.7460092,-0.4369311,         1P     46
0.3738622,0.7690875,-0.3741069,0.3729162,0.7882735,-0.1865688,         1P     47
0.3706543,0.8341510,-0.6899962E-017,0.3700906,0.8455833,               1P     48
0.1865688,0.3706543,0.8341510,0.3741069,0.3729162,0.7882735,           1P     49
0.4369311,0.3738622,0.7690875,0.5000000,0.3750000,0.7460092,           1P     50
-0.5000000,0.4375000,0.7280644,-0.4375000,0.4375000,0.7503627,         1P     51
-0.3750000,0.4375000,0.7689446,-0.1875000,0.4375000,0.8135412,         1P     52
-0.6938894E-017,0.4375000,0.8246903,0.1875000,0.4375000,               1P     53
0.8135412,0.3750000,0.4375000,0.7689446,0.4375000,0.4375000,           1P     54
0.7503627,0.5000000,0.4375000,0.7280644,-0.5000000,0.5000000,          1P     55
0.7065307,-0.4375000,0.5000000,0.7280644,-0.3750000,0.5000000,         1P     56
0.7460092,-0.1875000,0.5000000,0.7890768,-0.6938894E-017,              1P     57
0.5000000,0.7998436,0.1875000,0.5000000,0.7890768,0.3750000,           1P     58
0.5000000,0.7460092,0.4375000,0.5000000,0.7280644,0.5000000,           1P     59
0.5000000,0.7065307,0.000000,1.000000,0.000000,1.000000;               1P     60
S      1G      4D      2P     60                                        T      1
