ForCAD                                                                  S      1
1H,,1H;,16Higes/nurbs_curve,21Higes/nurbs_curve.iges,13HforIGES V0.2,   G      1
7HUnknown,32,38,6,380,15,16Higes/nurbs_curve,1.000000,1,4HINCH,1.000000,G      2
0.2000000E-001,15H20260716.233410,0.1000000E-005,0.000000,7HforIGES,    G      3
7HforIGES,11,0,15H20260716.233410,;                                     G      4
     126       1       0       0       0       0       0       0        D      1
     126       0       0       4       0                                D      2
126,2,2,0,0,0,0,0.000000,0.000000,0.000000,1.000000,1.000000,          1P      1
1.000000,1.000000,2.000000,0.3000000,0.000000,0.000000,0.000000,       1P      2
0.000000,5.000000,0.000000,5.000000,5.000000,0.000000,0.000000,        1P      3
1.000000,0.000000,0.000000,0.000000;                                   1P      4
S      1G      4D      2P      4                                        T      1
