ForCAD                                                                  S      1
1H,,1H;,17Higes/nurbs_curve2,22Higes/nurbs_curve2.iges,13HforIGES V0.2, G      1
7HUnknown,32,38,6,380,15,17Higes/nurbs_curve2,1.000000,1,4HINCH,        G      2
1.000000,0.2000000E-001,15H20260716.233410,0.1000000E-005,0.000000,     G      3
7HforIGES,7HforIGES,11,0,15H20260716.233410,;                           G      4
     126       1       0       0       0       0       0       0        D      1
     126       0       0       9       0                                D      2
126,8,4,0,0,0,0,0.000000,0.000000,0.000000,0.000000,0.000000,          1P      1
0.2500000,0.2500000,0.7500000,0.7500000,1.000000,1.000000,             1P      2
1.000000,1.000000,1.000000,1.000000,1.125000,1.221875,1.428125,        1P      3
1.381250,1.165625,0.6968750,0.5125000,0.3000000,0.000000,              1P      4
0.000000,0.000000,0.000000,1.111111,0.000000,0.1278772E-001,           1P      5
1.888321,0.000000,0.7658643E-001,3.431802,0.000000,0.2488688,          1P      6
4.170437,0.000000,0.5764075,4.687221,0.000000,1.636771,4.925262,       1P      7
0.000000,2.560976,5.000000,0.000000,5.000000,5.000000,0.000000,        1P      8
0.000000,1.000000,0.000000,0.000000,0.000000;                          1P      9
S      1G      4D      2P      9                                        T      1
