ForCAD                                                                  S      1
1H,,1H;,25Higes/nurbs_curve_analysis,30Higes/nurbs_curve_analysis.iges, G      1
13HforIGES V0.2,7HUnknown,32,38,6,380,15,25Higes/nurbs_curve_analysis,  G      2
1.000000,1,4HINCH,1.000000,0.2000000E-001,15H20260716.233410,           G      3
0.1000000E-005,0.000000,7HforIGES,7HforIGES,11,0,15H20260716.233410,;   G      4
     126       1       0       0       0       0       0       0        D      1
     126       0       0      16       0                                D      2
126,16,4,0,0,0,0,0.000000,0.000000,0.000000,0.000000,0.000000,         1P      1
0.1800000,0.1800000,0.3000000,0.3000000,0.4200000,0.4200000,           1P      2
0.6000000,0.6000000,0.7300000,0.7300000,0.8800000,0.8800000,           1P      3
1.000000,1.000000,1.000000,1.000000,1.000000,1.000000,0.8650000,       1P      4
0.9121429,1.095942,1.124549,1.115211,1.076307,1.030996,1.048482,       1P      5
1.079036,1.085543,1.069850,0.9808621,0.9288506,1.066667,               1P      6
1.090000,1.000000,0.000000,0.000000,0.000000,0.5687861,                1P      7
0.8531792,0.2843931,1.123023,1.053171,0.7230227,1.672796,              1P      8
0.7655084,1.257690,2.017709,0.4502007,1.539190,2.280196,               1P      9
0.1754496,1.720110,2.561426,-0.1465864,1.822493,2.951353,              1P     10
-0.5795535,1.895070,3.352257,-0.9157086,1.775912,3.725766,             1P     11
-1.143035,1.575207,4.042516,-1.142072,1.284908,4.320982,               1P     12
-1.046146,0.9891219,4.635982,-0.6853577,0.5853577,5.074838,            1P     13
-0.6113930E-001,0.2960813,5.653333,0.8616667,0.6716667,5.983486,       1P     14
0.9394495,1.075229,6.600000,0.4000000,2.000000,0.000000,               1P     15
1.000000,0.000000,0.000000,0.000000;                                   1P     16
S      1G      4D      2P     16                                        T      1
