ForCAD                                                                  S      1
1H,,1H;,19Higes/nurbs_surface3,24Higes/nurbs_surface3.iges,             G      1
13HforIGES V0.2,7HUnknown,32,38,6,380,15,19Higes/nurbs_surface3,        G      2
1.000000,1,4HINCH,1.000000,0.2000000E-001,15H20260716.233410,           G      3
0.1000000E-005,0.000000,7HforIGES,7HforIGES,11,0,15H20260716.233410,;   G      4
     128       1       0       0       0       0       0       0        D      1
     128       0       0      58       0                                D      2
128,8,8,4,4,0,0,0,0,0,0.000000,0.000000,0.000000,0.000000,             1P      1
0.000000,0.2500000,0.2500000,0.7500000,0.7500000,1.000000,             1P      2
1.000000,1.000000,1.000000,1.000000,0.000000,0.000000,0.000000,        1P      3
0.000000,0.000000,0.2500000,0.2500000,0.7500000,0.7500000,             1P      4
1.000000,1.000000,1.000000,1.000000,1.000000,1.000000,1.125000,        1P      5
1.229167,1.479167,1.541667,1.479167,1.229167,1.125000,1.000000,        1P      6
1.000000,1.109375,1.200521,1.419271,1.473958,1.419271,1.200521,        1P      7
1.109375,1.000000,1.000000,1.095052,1.174262,1.364366,1.411892,        1P      8
1.364366,1.174262,1.095052,1.000000,1.000000,1.055990,1.102648,        1P      9
1.214627,1.242622,1.214627,1.102648,1.055990,1.000000,1.000000,        1P     10
1.028646,1.052517,1.109809,1.124132,1.109809,1.052517,1.028646,        1P     11
1.000000,1.000000,1.009115,1.016710,1.034939,1.039497,1.034939,        1P     12
1.016710,1.009115,1.000000,1.000000,1.001302,1.002387,1.004991,        1P     13
1.005642,1.004991,1.002387,1.001302,1.000000,1.000000,1.000000,        1P     14
1.000000,1.000000,1.000000,1.000000,1.000000,1.000000,1.000000,        1P     15
1.000000,1.000000,1.000000,1.000000,1.000000,1.000000,1.000000,        1P     16
1.000000,1.000000,1.853146,1.500000,-2.853961,1.880216,1.611111,       1P     17
-2.826891,1.898568,1.694915,-2.808539,1.932067,1.873239,               1P     18
-2.775039,1.938745,2.000000,-2.768362,1.932067,2.126761,               1P     19
-2.775039,1.898568,2.305085,-2.808539,1.880216,2.388889,               1P     20
-2.826891,1.853146,2.500000,-2.853961,1.824179,1.500000,               1P     21
-2.794540,1.853257,1.605634,-2.774176,1.873442,1.687636,               1P     22
-2.760040,1.911307,1.867890,-2.733522,1.919017,2.000000,               1P     23
-2.728123,1.911307,2.132110,-2.733522,1.873442,2.312364,               1P     24
-2.760040,1.853257,2.394366,-2.774176,1.824179,2.500000,               1P     25
-2.794540,1.792673,1.500000,-2.737657,1.823306,1.600476,               1P     26
-2.722369,1.845045,1.680651,-2.711519,1.886920,1.862574,               1P     27
-2.690620,1.895627,2.000000,-2.686275,1.886920,2.137426,               1P     28
-2.690620,1.845045,2.319349,-2.711519,1.823306,2.399524,               1P     29
-2.722369,1.792673,2.500000,-2.737657,1.690544,1.500000,               1P     30
-2.574621,1.722006,1.585697,-2.566591,1.745783,1.659909,               1P     31
-2.560523,1.795396,1.845632,-2.547861,1.806402,2.000000,               1P     32
-2.545052,1.795396,2.154368,-2.547861,1.745783,2.340091,               1P     33
-2.560523,1.722006,2.414303,-2.566591,1.690544,2.500000,               1P     34
-2.574621,1.565575,1.500000,-2.434425,1.594055,1.574684,               1P     35
-2.425636,1.616605,1.643711,-2.418677,1.666766,1.831052,               1P     36
-2.403198,1.678507,2.000000,-2.399575,1.666766,2.168948,               1P     37
-2.403198,1.616605,2.356289,-2.418677,1.594055,2.425316,               1P     38
-2.425636,1.565575,2.500000,-2.434425,1.425379,1.500000,               1P     39
-2.309456,1.447486,1.566452,-2.296131,1.465605,1.631163,               1P     40
-2.285210,1.508007,1.818830,-2.259652,1.518375,2.000000,               1P     41
-2.253403,1.508007,2.181170,-2.259652,1.465605,2.368837,               1P     42
-2.285210,1.447486,2.433548,-2.296131,1.425379,2.500000,               1P     43
-2.309456,1.262343,1.500000,-2.207327,1.279466,1.563069,               1P     44
-2.191813,1.293702,1.625893,-2.178915,1.327742,1.813431,               1P     45
-2.148074,1.336224,2.000000,-2.140389,1.327742,2.186569,               1P     46
-2.148074,1.293702,2.374107,-2.178915,1.279466,2.436931,               1P     47
-2.191813,1.262343,2.500000,-2.207327,1.205460,1.500000,               1P     48
-2.175821,1.221227,1.562500,-2.160054,1.234367,1.625000,               1P     49
-2.146915,1.265901,1.812500,-2.115380,1.273785,2.000000,               1P     50
-2.107497,1.265901,2.187500,-2.115380,1.234367,2.375000,               1P     51
-2.146915,1.221227,2.437500,-2.160054,1.205460,2.500000,               1P     52
-2.175821,1.146039,1.500000,-2.146854,1.161266,1.562500,               1P     53
-2.131627,1.173955,1.625000,-2.118938,1.204408,1.812500,               1P     54
-2.088485,1.212021,2.000000,-2.080872,1.204408,2.187500,               1P     55
-2.088485,1.173955,2.375000,-2.118938,1.161266,2.437500,               1P     56
-2.131627,1.146039,2.500000,-2.146854,0.000000,1.000000,               1P     57
0.000000,1.000000;                                                     1P     58
S      1G      4D      2P     58                                        T      1
