ForCAD                                                                  S      1
1H,,1H;,18Higes/nurbs_surface,23Higes/nurbs_surface.iges,               G      1
13HforIGES V0.2,7HUnknown,32,38,6,380,15,18Higes/nurbs_surface,1.000000,G      2
1,4HINCH,1.000000,0.2000000E-001,15H20260716.233410,0.1000000E-005,     G      3
0.000000,7HforIGES,7HforIGES,11,0,15H20260716.233410,;                  G      4
     128       1       0       0       0       0       0       0        D      1
     128       0       0       9       0                                D      2
128,2,2,2,2,0,0,0,0,0,0.000000,0.000000,0.000000,1.000000,             1P      1
1.000000,1.000000,0.000000,0.000000,0.000000,1.000000,1.000000,        1P      2
1.000000,1.000000,2.000000,1.000000,1.000000,1.000000,1.000000,        1P      3
1.000000,1.000000,1.000000,-0.5000000,-0.5000000,0.7065307,            1P      4
0.000000,-0.5000000,0.8788008,0.5000000,-0.5000000,0.7065307,          1P      5
-0.5000000,0.000000,0.8788008,0.000000,0.000000,1.100000,              1P      6
0.5000000,0.000000,0.8788008,-0.5000000,0.5000000,0.7065307,           1P      7
0.000000,0.5000000,0.8788008,0.5000000,0.5000000,0.7065307,            1P      8
0.000000,1.000000,0.000000,1.000000;                                   1P      9
S      1G      4D      2P      9                                        T      1
