ForCAD                                                                  S      1
1H,,1H;,25Higes/volume_analyze_outer,30Higes/volume_analyze_outer.iges, G      1
13HforIGES V0.2,7HUnknown,32,38,6,380,15,25Higes/volume_analyze_outer,  G      2
1.000000,1,4HINCH,1.000000,0.2000000E-01,15H20260719.062609,            G      3
0.1000000E-05,0.000000,7HforIGES,7HforIGES,11,0,15H20260719.062609,;    G      4
     128       1       0       0       0       0       0       0        D      1
     128       0       0      49       0                                D      2
128,6,8,3,2,0,0,0,0,0,0.000000,0.000000,0.000000,0.000000,             1P      1
0.2000000,0.4800000,0.7700000,1.000000,1.000000,1.000000,              1P      2
1.000000,0.000000,0.000000,0.000000,0.2500000,0.2500000,               1P      3
0.5000000,0.5000000,0.7500000,0.7500000,1.000000,1.000000,             1P      4
1.000000,1.000000,1.000000,1.000000,1.000000,1.000000,1.000000,        1P      5
1.000000,0.7071068,0.7071068,0.7071068,0.7071068,0.7071068,            1P      6
0.7071068,0.7071068,1.000000,1.000000,1.000000,1.000000,               1P      7
1.000000,1.000000,1.000000,0.7071068,0.7071068,0.7071068,              1P      8
0.7071068,0.7071068,0.7071068,0.7071068,1.000000,1.000000,             1P      9
1.000000,1.000000,1.000000,1.000000,1.000000,0.7071068,                1P     10
0.7071068,0.7071068,0.7071068,0.7071068,0.7071068,0.7071068,           1P     11
1.000000,1.000000,1.000000,1.000000,1.000000,1.000000,1.000000,        1P     12
0.7071068,0.7071068,0.7071068,0.7071068,0.7071068,0.7071068,           1P     13
0.7071068,1.000000,1.000000,1.000000,1.000000,1.000000,1.000000,       1P     14
1.000000,0.8200000,0.000000,-2.300000,1.100000,0.000000,               1P     15
-1.950000,1.550000,0.000000,-1.200000,1.380000,0.000000,               1P     16
-0.2000000,1.720000,0.000000,0.8500000,1.200000,0.000000,              1P     17
1.750000,0.8800000,0.000000,2.350000,0.8200000,0.8200000,              1P     18
-2.300000,1.100000,1.100000,-1.950000,1.550000,1.550000,               1P     19
-1.200000,1.380000,1.380000,-0.2000000,1.720000,1.720000,              1P     20
0.8500000,1.200000,1.200000,1.750000,0.8800000,0.8800000,              1P     21
2.350000,-0.3584334E-07,0.8200000,-2.300000,-0.4808253E-07,            1P     22
1.100000,-1.950000,-0.6775265E-07,1.550000,-1.200000,                  1P     23
-0.6032172E-07,1.380000,-0.2000000,-0.7518359E-07,1.720000,            1P     24
0.8500000,-0.5245367E-07,1.200000,1.750000,-0.3846602E-07,             1P     25
0.8800000,2.350000,-0.8200000,0.8200000,-2.300000,-1.100000,           1P     26
1.100000,-1.950000,-1.550000,1.550000,-1.200000,-1.380000,             1P     27
1.380000,-0.2000000,-1.720000,1.720000,0.8500000,-1.200000,            1P     28
1.200000,1.750000,-0.8800000,0.8800000,2.350000,-0.8200000,            1P     29
-0.7168668E-07,-2.300000,-1.100000,-0.9616505E-07,-1.950000,           1P     30
-1.550000,-0.1355053E-06,-1.200000,-1.380000,-0.1206434E-06,           1P     31
-0.2000000,-1.720000,-0.1503672E-06,0.8500000,-1.200000,               1P     32
-0.1049073E-06,1.750000,-0.8800000,-0.7693205E-07,2.350000,            1P     33
-0.8199998,-0.8200001,-2.300000,-1.100000,-1.100000,-1.950000,         1P     34
-1.550000,-1.550000,-1.200000,-1.380000,-1.380000,-0.2000000,          1P     35
-1.720000,-1.720000,0.8500000,-1.200000,-1.200000,1.750000,            1P     36
-0.8799998,-0.8800001,2.350000,0.9778402E-08,-0.8200000,               1P     37
-2.300000,0.1311737E-07,-1.100000,-1.950000,0.1848356E-07,             1P     38
-1.550000,-1.200000,0.1645633E-07,-1.380000,-0.2000000,                1P     39
0.2051079E-07,-1.720000,0.8500000,0.1430986E-07,-1.200000,             1P     40
1.750000,0.1049389E-07,-0.8800000,2.350000,0.8200002,-0.8199997,       1P     41
-2.300000,1.100000,-1.100000,-1.950000,1.550000,-1.549999,             1P     42
-1.200000,1.380000,-1.380000,-0.2000000,1.720001,-1.719999,            1P     43
0.8500000,1.200000,-1.200000,1.750000,0.8800003,-0.8799996,            1P     44
2.350000,0.8200000,0.1433734E-06,-2.300000,1.100000,                   1P     45
0.1923301E-06,-1.950000,1.550000,0.2710106E-06,-1.200000,              1P     46
1.380000,0.2412869E-06,-0.2000000,1.720000,0.3007343E-06,              1P     47
0.8500000,1.200000,0.2098147E-06,1.750000,0.8800000,                   1P     48
0.1538641E-06,2.350000,0.000000,1.000000,0.000000,1.000000;            1P     49
S      1G      4D      2P     49                                        T      1
