ForCAD                                                                  S      1
1H,,1H;,25Hvtk/forcad_periodic_curve,30Hvtk/forcad_periodic_curve.iges, G      1
13HforIGES V0.2,7HUnknown,32,38,6,380,15,25Hvtk/forcad_periodic_curve,  G      2
1.000000,1,4HINCH,1.000000,0.2000000E-001,15H20260722.044300,           G      3
0.1000000E-005,0.000000,7HforIGES,7HforIGES,11,0,15H20260722.044300,;   G      4
     126       1       0       0       0       0       0       0        D      1
     126       0       0       7       0                                D      2
126,6,2,0,1,0,1,-2.200000,-1.600000,0.000000,0.7000000,1.800000,       1P      1
2.400000,3.500000,4.000000,4.700000,5.800000,1.000000,1.400000,        1P      2
0.8000000,1.200000,1.045455,1.191304,1.400000,1.000000,0.000000,       1P      3
0.000000,0.000000,1.000000,0.000000,-1.000000,0.000000,0.000000,       1P      4
0.000000,-1.000000,0.000000,0.7391304,-0.2608696,0.000000,             1P      5
0.4379562,0.5620438,0.000000,0.000000,1.000000,0.000000,               1P      6
0.000000,4.000000,0.000000,0.000000,0.000000;                          1P      7
S      1G      4D      2P      7                                        T      1
