ForCAD                                                                  S      1
1H,,1H;,24Hvtk/forcad_curve_general,29Hvtk/forcad_curve_general.iges,   G      1
13HforIGES V0.2,7HUnknown,32,38,6,380,15,24Hvtk/forcad_curve_general,   G      2
1.000000,1,4HINCH,1.000000,0.2000000E-001,15H20260722.044300,           G      3
0.1000000E-005,0.000000,7HforIGES,7HforIGES,11,0,15H20260722.044300,;   G      4
     126       1       0       0       0       0       0       0        D      1
     126       0       0       5       0                                D      2
126,3,2,0,0,1,0,0.000000,0.000000,0.000000,0.5000000,1.000000,         1P      1
1.000000,1.000000,1.000000,1.000000,1.000000,1.000000,0.000000,        1P      2
0.000000,0.000000,1.000000,0.5000000,0.000000,2.000000,                1P      3
0.5000000,0.000000,3.000000,0.000000,0.000000,0.000000,1.000000,       1P      4
0.000000,0.000000,0.000000;                                            1P      5
S      1G      4D      2P      5                                        T      1
