ForCAD                                                                  S      1
1H,,1H;,26Hvtk/forcad_surface_general,                                  G      1
31Hvtk/forcad_surface_general.iges,13HforIGES V0.2,7HUnknown,32,38,6,   G      2
380,15,26Hvtk/forcad_surface_general,1.000000,1,4HINCH,1.000000,        G      3
0.2000000E-001,15H20260722.044300,0.1000000E-005,0.000000,7HforIGES,    G      4
7HforIGES,11,0,15H20260722.044300,;                                     G      5
     128       1       0       0       0       0       0       0        D      1
     128       0       0       6       0                                D      2
128,2,1,1,1,0,0,1,0,0,0.000000,0.000000,0.5000000,1.000000,            1P      1
1.000000,0.000000,0.000000,1.000000,1.000000,1.000000,1.000000,        1P      2
1.000000,1.000000,1.000000,1.000000,0.000000,0.000000,0.000000,        1P      3
1.000000,0.000000,0.000000,2.000000,0.000000,0.000000,0.000000,        1P      4
1.000000,0.000000,1.000000,1.000000,0.000000,2.000000,1.000000,        1P      5
0.000000,0.000000,1.000000,0.000000,1.000000;                          1P      6
S      1G      5D      2P      6                                        T      1
