ForCAD                                                                  S      1
1H,,1H;,27Hvtk/forcad_periodic_surface,                                 G      1
32Hvtk/forcad_periodic_surface.iges,13HforIGES V0.2,7HUnknown,32,38,6,  G      2
380,15,27Hvtk/forcad_periodic_surface,1.000000,1,4HINCH,1.000000,       G      3
0.2000000E-001,15H20260722.044300,0.1000000E-005,0.000000,7HforIGES,    G      4
7HforIGES,11,0,15H20260722.044300,;                                     G      5
     128       1       0       0       0       0       0       0        D      1
     128       0       0      12       0                                D      2
128,6,1,2,1,1,0,0,1,0,0.000000,1.000000,2.000000,3.000000,             1P      1
3.500000,4.000000,5.000000,6.000000,7.000000,8.000000,0.000000,        1P      2
0.000000,1.000000,1.000000,1.000000,1.400000,0.9500000,                1P      3
0.9000000,1.200000,1.000000,1.400000,1.000000,1.400000,                1P      4
0.9500000,0.9000000,1.200000,1.000000,1.400000,1.000000,               1P      5
0.000000,0.000000,0.000000,1.000000,0.000000,-0.6315789,               1P      6
0.3684211,0.000000,-0.6666667,-0.3333333,0.000000,0.000000,            1P      7
-1.000000,0.000000,1.000000,0.000000,0.000000,0.000000,1.000000,       1P      8
0.000000,1.000000,0.000000,1.000000,0.000000,1.000000,1.000000,        1P      9
-0.6315789,0.3684211,1.000000,-0.6666667,-0.3333333,1.000000,          1P     10
0.000000,-1.000000,1.000000,1.000000,0.000000,1.000000,0.000000,       1P     11
1.000000,1.000000,2.000000,6.000000,0.000000,1.000000;                 1P     12
S      1G      5D      2P     12                                        T      1
